<svg id="Color" enable-background="new 0 0 24 24" height="512" viewBox="0 0 24 24" width="512" xmlns="http://www.w3.org/2000/svg"><path d="m23.36 8.555-7.382-1.101-3.33-7.025c-.124-.262-.387-.429-.677-.429-.306.004-.557.17-.68.434l-3.282 7.046-7.374 1.152c-.279.044-.509.238-.597.506-.089.267-.019.56.177.761l5.379 5.471-1.239 7.763c-.046.282.075.567.31.731.128.09.278.136.43.136.125 0 .251-.031.365-.095l6.577-3.662 6.602 3.618c.25.138.56.119.795-.047.233-.166.353-.451.306-.734l-1.294-7.755 5.342-5.506c.196-.202.263-.496.172-.763-.09-.266-.321-.459-.6-.501z" fill="#ffc107"/><path d="m11.75 17c-.414 0-.75-.336-.75-.75v-4.793c-.291-.103-.5-.381-.5-.707 0-.414.336-.75.75-.75h.5c.414 0 .75.336.75.75v5.5c0 .414-.336.75-.75.75z" fill="#fafafa"/><path d="m11.971 0c-.306.004-.557.17-.68.434l-3.282 7.046-7.374 1.152c-.279.044-.509.238-.597.506-.089.267-.019.56.177.761l5.379 5.471-1.239 7.763c-.046.282.075.567.31.731.128.09.278.136.43.136.125 0 .251-.031.365-.095l6.54-3.641v-3.307c-.078.028-.162.043-.25.043-.414 0-.75-.336-.75-.75v-4.793c-.291-.103-.5-.381-.5-.707 0-.414.336-.75.75-.75h.5c.088 0 .172.015.25.043v-10.042c-.01-.001-.02-.001-.029-.001z" fill="#dea806"/><path d="m11.75 10h-.5c-.414 0-.75.336-.75.75 0 .326.209.604.5.707v4.793c0 .414.336.75.75.75.088 0 .172-.015.25-.043v-6.915c-.078-.027-.162-.042-.25-.042z" fill="#dadada"/></svg>